<svg width="20" height="20" viewBox="0 0 20 20" fill="none" xmlns="http://www.w3.org/2000/svg">
<path d="M9.99999 16.9444C6.16467 16.9444 3.05554 13.8353 3.05554 9.99999C3.05554 6.16467 6.16467 3.05554 9.99999 3.05554C13.8353 3.05554 16.9444 6.16467 16.9444 9.99999C16.9444 13.8353 13.8353 16.9444 9.99999 16.9444ZM8.40972 15.3246C7.74126 13.9069 7.33146 12.3432 7.24117 10.6944H4.48741C4.76249 12.9003 6.33081 14.7046 8.40972 15.3246ZM8.63242 10.6944C8.73686 12.388 9.22068 13.9789 9.99999 15.3833C10.7793 13.9789 11.2631 12.388 11.3676 10.6944H8.63242ZM15.5126 10.6944H12.7588C12.6685 12.3432 12.2587 13.9069 11.5903 15.3246C13.6692 14.7046 15.2375 12.9003 15.5126 10.6944ZM4.48741 9.30554H7.24117C7.33146 7.65677 7.74126 6.09309 8.40972 4.67538C6.33081 5.29535 4.76249 7.09964 4.48741 9.30554ZM8.63242 9.30554H11.3676C11.2631 7.61194 10.7793 6.02099 9.99999 4.61665C9.22068 6.02099 8.73686 7.61194 8.63242 9.30554ZM11.5903 4.67538C12.2587 6.09309 12.6685 7.65677 12.7588 9.30554H15.5126C15.2375 7.09964 13.6692 5.29535 11.5903 4.67538Z" fill="#171717"/>
</svg>
